{
  "accessors": [
    {
      "bufferView": 2,
      "componentType": 5126,
      "count": 43507,
      "max": [
        80.370964050292969,
        107.89833068847656,
        32.000003814697266
      ],
      "min": [
        -81.82904052734375,
        -98.903678894042969,
        -11.399996757507324
      ],
      "type": "VEC3"
    },
    {
      "bufferView": 2,
      "byteOffset": 522084,
      "componentType": 5126,
      "count": 43507,
      "max": [
        1,
        1,
        1
      ],
      "min": [
        -1,
        -1,
        -1
      ],
      "type": "VEC3"
    },
    {
      "bufferView": 0,
      "componentType": 5125,
      "count": 140496,
      "max": [
        43506
      ],
      "min": [
        0
      ],
      "type": "SCALAR"
    },
    {
      "bufferView": 2,
      "byteOffset": 1044168,
      "componentType": 5126,
      "count": 412,
      "max": [
        80.020973205566406,
        95.372329711914062,
        29.300003051757812
      ],
      "min": [
        -81.479042053222656,
        -86.327674865722656,
        27.500003814697266
      ],
      "type": "VEC3"
    },
    {
      "bufferView": 2,
      "byteOffset": 1049112,
      "componentType": 5126,
      "count": 412,
      "max": [
        0,
        0.99144750833511353,
        0.99144750833511353
      ],
      "min": [
        0,
        -0.99144750833511353,
        -0.99144750833511353
      ],
      "type": "VEC3"
    },
    {
      "bufferView": 3,
      "componentType": 5126,
      "count": 412,
      "max": [
        1,
        2.1894165911362506e-05,
        4.5755285100312904e-05,
        1
      ],
      "min": [
        -1,
        -2.1950410882709548e-05,
        -4.4905231334269047e-05,
        1
      ],
      "type": "VEC4"
    },
    {
      "bufferView": 1,
      "componentType": 5126,
      "count": 412,
      "max": [
        0.76226001977920532,
        0.99972498416900635
      ],
      "min": [
        0.00027499999850988388,
        0.00027499999850988388
      ],
      "type": "VEC2"
    },
    {
      "bufferView": 0,
      "byteOffset": 561984,
      "componentType": 5125,
      "count": 960,
      "max": [
        411
      ],
      "min": [
        0
      ],
      "type": "SCALAR"
    },
    {
      "bufferView": 2,
      "byteOffset": 1054056,
      "componentType": 5126,
      "count": 5243,
      "max": [
        10.069877624511719,
        106.26833343505859,
        111.49430847167969
      ],
      "min": [
        -10.077007293701172,
        105.84897613525391,
        104.05784606933594
      ],
      "type": "VEC3"
    },
    {
      "bufferView": 2,
      "byteOffset": 1116972,
      "componentType": 5126,
      "count": 5243,
      "max": [
        0.99999487400054932,
        1,
        0.99999642372131348
      ],
      "min": [
        -0.99999558925628662,
        -1,
        -0.99999642372131348
      ],
      "type": "VEC3"
    },
    {
      "bufferView": 3,
      "byteOffset": 6592,
      "componentType": 5126,
      "count": 5243,
      "max": [
        0.9999995231628418,
        0.99999797344207764,
        0.99979114532470703,
        1
      ],
      "min": [
        -0.99999755620956421,
        -0.9999997615814209,
        -0.99999356269836426,
        1
      ],
      "type": "VEC4"
    },
    {
      "bufferView": 1,
      "byteOffset": 3296,
      "componentType": 5126,
      "count": 5243,
      "max": [
        0.95160597562789917,
        0.7919430136680603
      ],
      "min": [
        0.14092899858951569,
        0.0019799999427050352
      ],
      "type": "VEC2"
    },
    {
      "bufferView": 0,
      "byteOffset": 565824,
      "componentType": 5125,
      "count": 20229,
      "max": [
        5242
      ],
      "min": [
        0
      ],
      "type": "SCALAR"
    },
    {
      "bufferView": 2,
      "byteOffset": 1179888,
      "componentType": 5126,
      "count": 20639,
      "max": [
        88.2850341796875,
        112.55958557128906,
        114.99427795410156
      ],
      "min": [
        -88.2850341796875,
        -103.53366851806641,
        3.0000001061125658e-06
      ],
      "type": "VEC3"
    },
    {
      "bufferView": 2,
      "byteOffset": 1427556,
      "componentType": 5126,
      "count": 20639,
      "max": [
        1,
        1,
        1
      ],
      "min": [
        -1,
        -1,
        -1
      ],
      "type": "VEC3"
    },
    {
      "bufferView": 3,
      "byteOffset": 90480,
      "componentType": 5126,
      "count": 20639,
      "max": [
        1,
        1,
        1,
        1
      ],
      "min": [
        -1,
        -1,
        -1,
        -1
      ],
      "type": "VEC4"
    },
    {
      "bufferView": 1,
      "byteOffset": 45240,
      "componentType": 5126,
      "count": 20639,
      "max": [
        0.99820798635482788,
        0.99720299243927002
      ],
      "min": [
        0.0017859999788925052,
        0.0017849999712780118
      ],
      "type": "VEC2"
    },
    {
      "bufferView": 0,
      "byteOffset": 646740,
      "componentType": 5125,
      "count": 75528,
      "max": [
        20638
      ],
      "min": [
        0
      ],
      "type": "SCALAR"
    },
    {
      "bufferView": 2,
      "byteOffset": 1675224,
      "componentType": 5126,
      "count": 4,
      "max": [
        -1.6431469917297363,
        106.12232971191406,
        107.73924255371094
      ],
      "min": [
        -1.7120859622955322,
        106.02233123779297,
        107.67399597167969
      ],
      "type": "VEC3"
    },
    {
      "bufferView": 2,
      "byteOffset": 1675272,
      "componentType": 5126,
      "count": 4,
      "max": [
        -0.68738949298858643,
        -0,
        0.72628891468048096
      ],
      "min": [
        -0.68738949298858643,
        -0,
        0.72628891468048096
      ],
      "type": "VEC3"
    },
    {
      "bufferView": 3,
      "byteOffset": 420704,
      "componentType": 5126,
      "count": 4,
      "max": [
        0.368552565574646,
        -0.86168348789215088,
        0.34881317615509033,
        1
      ],
      "min": [
        0.30972081422805786,
        -0.90451455116271973,
        0.29313239455223083,
        1
      ],
      "type": "VEC4"
    },
    {
      "bufferView": 1,
      "byteOffset": 210352,
      "componentType": 5126,
      "count": 4,
      "max": [
        0.28793299198150635,
        0.14798299968242645
      ],
      "min": [
        0.28676199913024902,
        0.14681500196456909
      ],
      "type": "VEC2"
    },
    {
      "bufferView": 0,
      "byteOffset": 948852,
      "componentType": 5125,
      "count": 6,
      "max": [
        3
      ],
      "min": [
        0
      ],
      "type": "SCALAR"
    }
  ],
  "asset": {
    "extras": {
      "author": "Interiors3D (https://sketchfab.com/Interiors3D)",
      "license": "CC-BY-4.0 (http://creativecommons.org/licenses/by/4.0/)",
      "source": "https://sketchfab.com/3d-models/dsn000-dc35da241f884a209918211355583ff4",
      "title": "DSN000"
    },
    "generator": "Sketchfab-10.11.2",
    "version": "2.0"
  },
  "bufferViews": [
    {
      "buffer": 0,
      "byteLength": 948876,
      "byteOffset": 0,
      "name": "floatBufferViews",
      "target": 34963
    },
    {
      "buffer": 0,
      "byteLength": 210384,
      "byteOffset": 948876,
      "byteStride": 8,
      "name": "floatBufferViews",
      "target": 34962
    },
    {
      "buffer": 0,
      "byteLength": 1675320,
      "byteOffset": 1159260,
      "byteStride": 12,
      "name": "floatBufferViews",
      "target": 34962
    },
    {
      "buffer": 0,
      "byteLength": 420768,
      "byteOffset": 2834580,
      "byteStride": 16,
      "name": "floatBufferViews",
      "target": 34962
    }
  ],
  "buffers": [
    {
      "byteLength": 3255348,
      "uri": "scene.bin"
    }
  ],
  "images": [
    {
      "uri": "textures/Chateau_baseColor.jpeg"
    },
    {
      "uri": "textures/Chateau_metallicRoughness.png"
    },
    {
      "uri": "textures/Chateau_normal.png"
    },
    {
      "uri": "textures/natwood_baseColor.jpeg"
    },
    {
      "uri": "textures/natwood_metallicRoughness.png"
    },
    {
      "uri": "textures/natwood_normal.png"
    }
  ],
  "materials": [
    {
      "doubleSided": true,
      "name": "Chateau",
      "normalTexture": {
        "index": 2,
        "scale": 1,
        "texCoord": 0
      },
      "pbrMetallicRoughness": {
        "baseColorFactor": [
          1,
          1,
          1,
          1
        ],
        "baseColorTexture": {
          "index": 0,
          "texCoord": 0
        },
        "metallicFactor": 0,
        "metallicRoughnessTexture": {
          "index": 1,
          "texCoord": 0
        },
        "roughnessFactor": 1
      }
    },
    {
      "doubleSided": true,
      "name": "Metal",
      "pbrMetallicRoughness": {
        "baseColorFactor": [
          0.049547000000000001,
          0.049547000000000001,
          0.049547000000000001,
          1
        ],
        "metallicFactor": 1,
        "roughnessFactor": 0.22567426075797481
      }
    },
    {
      "doubleSided": true,
      "name": "natwood",
      "normalTexture": {
        "index": 5,
        "scale": 1,
        "texCoord": 0
      },
      "pbrMetallicRoughness": {
        "baseColorFactor": [
          1,
          1,
          1,
          1
        ],
        "baseColorTexture": {
          "index": 3,
          "texCoord": 0
        },
        "metallicFactor": 0,
        "metallicRoughnessTexture": {
          "index": 4,
          "texCoord": 0
        },
        "roughnessFactor": 1
      }
    }
  ],
  "meshes": [
    {
      "primitives": [
        {
          "attributes": {
            "NORMAL": 1,
            "POSITION": 0
          },
          "indices": 2,
          "material": 1,
          "mode": 4
        }
      ]
    },
    {
      "primitives": [
        {
          "attributes": {
            "NORMAL": 4,
            "POSITION": 3,
            "TANGENT": 5,
            "TEXCOORD_0": 6
          },
          "indices": 7,
          "material": 2,
          "mode": 4
        }
      ]
    },
    {
      "primitives": [
        {
          "attributes": {
            "NORMAL": 9,
            "POSITION": 8,
            "TANGENT": 10,
            "TEXCOORD_0": 11
          },
          "indices": 12,
          "material": 0,
          "mode": 4
        }
      ]
    },
    {
      "primitives": [
        {
          "attributes": {
            "NORMAL": 14,
            "POSITION": 13,
            "TANGENT": 15,
            "TEXCOORD_0": 16
          },
          "indices": 17,
          "material": 0,
          "mode": 4
        }
      ]
    },
    {
      "primitives": [
        {
          "attributes": {
            "NORMAL": 19,
            "POSITION": 18,
            "TANGENT": 20,
            "TEXCOORD_0": 21
          },
          "indices": 22,
          "material": 0,
          "mode": 4
        }
      ]
    }
  ],
  "nodes": [
    {
      "children": [
        1
      ],
      "name": "RootNode (gltf orientation matrix)",
      "rotation": [
        -0.70710678118654746,
        -0,
        -0,
        0.70710678118654757
      ]
    },
    {
      "children": [
        2
      ],
      "name": "RootNode (model correction matrix)"
    },
    {
      "children": [
        3,
        4,
        5,
        6,
        7
      ],
      "name": "W03 - DSN000 - Sketchfab - mesh.obj.cleaner.materialmerger.gles"
    },
    {
      "mesh": 0,
      "name": ""
    },
    {
      "mesh": 1,
      "name": ""
    },
    {
      "mesh": 2,
      "name": ""
    },
    {
      "mesh": 3,
      "name": ""
    },
    {
      "mesh": 4,
      "name": ""
    }
  ],
  "samplers": [
    {
      "magFilter": 9729,
      "minFilter": 9987,
      "wrapS": 10497,
      "wrapT": 10497
    }
  ],
  "scene": 0,
  "scenes": [
    {
      "name": "OSG_Scene",
      "nodes": [
        0
      ]
    }
  ],
  "textures": [
    {
      "sampler": 0,
      "source": 0
    },
    {
      "sampler": 0,
      "source": 1
    },
    {
      "sampler": 0,
      "source": 2
    },
    {
      "sampler": 0,
      "source": 3
    },
    {
      "sampler": 0,
      "source": 4
    },
    {
      "sampler": 0,
      "source": 5
    }
  ]
}

